<?xml version="1.0" encoding="UTF-8"?>
<svg id="Layer_2" data-name="Layer 2" xmlns="http://www.w3.org/2000/svg" viewBox="0 0 426.54 473.82">
  <defs>
    <style>
      .cls-1 {
        fill: #ffedca;
      }

      .cls-1, .cls-2, .cls-3, .cls-4 {
        stroke-width: 0px;
      }

      .cls-5 {
        fill: none;
        stroke: #fff;
        stroke-linecap: round;
        stroke-miterlimit: 10;
        stroke-width: 16px;
      }

      .cls-2 {
        fill: #c3005c;
      }

      .cls-3 {
        fill: #ff96dd;
      }

      .cls-4 {
        fill: #6c007c;
      }
    </style>
  </defs>
  <g id="Layer_1-2" data-name="Layer 1">
    <g>
      <path class="cls-4" d="m322.39,231.55c37.84,27.53,93.39,45.42,77.83,91.3-15.73,46.38,56.12,60.24,11.48,54.52s-16.73-35.26-57.86-42.49c-61.23-10.77-31.45-103.33-31.45-103.33Z"/>
      <path class="cls-4" d="m311.51,332.66s12.4,61.29,13.26,89.11c.87,27.82,24.53,13.2,40.19,31.79,15.66,18.59,0,20.26,0,20.26,0,0-25.42-25.14-63.76-34.09-38.34-8.95-52.76-2.42-77.11-30.3s-15.69-2.44,10.25-21.66c25.94-19.21,45.25-106.84,45.25-106.84l31.92,51.73Z"/>
      <path class="cls-2" d="m209.53,176.48s-25.58-116.43,22.71-169.08,99.76,192.03,90.15,224.16c-9.62,32.13,3.98,86.13-21.83,70.29-25.81-15.85-91.03-125.37-91.03-125.37Z"/>
      <path class="cls-2" d="m209.53,194.94c-30.72,1.87-66.32,13.02-82.03,26.61C90.86,253.23.66,316,1.28,379.03c.57,57.92,137.99,52.77,196.89,29.14s104.65-60.88,95.71-73.28c-8.94-12.41,11.71-18.44-14.28-53.95s-36.49-88.04-70.06-86Z"/>
      <path class="cls-4" d="m299.6,125.44c2.39,14.15,4.23,28.43,7.37,42.41,2.02,8.98,7.08,17.32,8.72,26.33,1.94,10.6,1.48,21.62,2.52,32.4.17,1.77,2.72,3.32,4.17,4.97,9.26-10.16,12.74,1.6,17.78,5.13,19.23,13.5,38.34,27.23,56.87,41.66,5.05,3.93,4.62,16.95,5.73,26.35-13.54-22.88-26.83-33.6-42.55-45.61,2.31,14.23,24.98,15.26,16.22,34.33l.19-.1c-3.95-.59-11.95-12.06-9.88,3.69.08.64-1.11,1.98-1.88,2.13-12.77,2.45-25.57,4.77-41.06,7.61,5.61,8.81,13.25,20.92,21,32.96,4.36,6.77,9.2,13.26,13.14,20.26.93,1.65-.3,7.72-1.48,14.05-1.27,1.16-2.54,2.32-3.81,3.47-13.71-14.94-27.43-29.89-41.14-44.83,12.26,29.07,20.42,57.97,13.26,89.11-.95,4.14-5.82,7.38-8.35,10.41-1.64-7.7-3.23-15.18-4.83-22.67-1.34.19-2.68.37-4.02.56.03,5.96.12,11.93,0,17.89-.02.73-1.59,2.17-1.8,2.06-3.33-1.75-6.66-3.55-9.79-5.65-3.02-2.03-5.8-4.41-8.69-6.63,1.51,3.01,2.74,6.2,4.6,8.98,3.58,5.38,7.51,10.53,9.3,13-15.9-.77-32.64-.06-48.77-2.87-12.19-2.12-27.04-1.41-33.61-16.92-4.94-11.64-13.71-9.79-24.31-6.56-50.9,15.54-102.99,20.04-154.51,5.73-14.37-3.99-37.64-4.96-39.16-27.56-1.11-16.58-2.49-37.19,5.81-49.64,31.81-47.74,68.24-92.5,117.61-123.62,19.42-12.25,40.49-24.07,65.35-21.13,3.85.45,7.36,3.72,11.03,5.68-3.78,1.06-7.76,3.49-11.32,2.97-28.99-4.24-53.43,10.11-72.43,26.53-35.86,31.01-67.18,67.28-100.11,101.64-2.54,2.65-2.19,7.86-4.32,11.13-4.54,6.98,6.23,18.71-7.45,23.38-1.07.37-.55,12.99,2.76,17.02,6.31,7.68,15.16,13.26,22.96,19.72,1.08-3.33,2.29-6.63,3.21-10.01.9-3.3,1.51-6.69,2.24-10.04,2.93,2.3,6.5,4.14,8.64,7.02,2.78,3.75,3.61,9.15,6.78,12.35,3.85,3.89,9.26,6.23,13.99,9.24.69-5.04.94-10.2,2.24-15.08.81-3.04,3.18-5.66,4.86-8.47,3.13,2.23,7.63,3.78,9.13,6.82,4.07,8.23,1.52,23.06,18.1,17.53,14.38-4.8,7.08-15.82,5.85-24.81-1.75-12.79-3.75-25.55-6.08-41.22,12.3,16.73,22.76,30.95,33.22,45.18-.86.75-1.73,1.5-2.59,2.26-4-2.55-7.99-5.1-12.49-7.96.46,10.67,18.02,26.23,26.54,23.21,3.74-1.33,9.09-9.1,8.09-11-5.05-9.66-11.92-18.36-18.21-27.36-.97-1.39-3.28-2.66-3.19-3.86.65-8.95,1.74-17.87,2.98-29.39,9.25,16.19,17.36,31.85,27.02,46.48,3.48,5.26,10.56,8.32,16.47,11.5.57.3,5.39-5.35,6.64-8.82,1.21-3.34.36-7.43.41-11.2,19.82-6.75,5.77,19.8-1.75,33.03,12.34-5.57,21.13-9.55,29.93-13.52-4.35-5.18-8.73-10.34-13.01-15.58-.88-1.07-1.29-3.47-2.05-3.54-4.33-.35-8.7-.17-13.05-.17-13.8-21.46-27.75-42.83-41.17-64.53-1.51-2.43-.02-6.72.08-10.15,2.34,2.16,5.18,3.98,6.95,6.53,11.02,15.89,20.77,32.81,33.03,47.66,8.18,9.92,19.76,17.07,30.13,25.05.59.46,5.95-3.14,5.73-4.08-2.45-10.53-5.49-20.93-8.51-31.32-.73-2.5-1.93-4.87-2.91-7.3,1.72-.72,3.43-1.43,5.15-2.15,6.98,16.51,13.97,33.02,21.24,50.22,12.79-7.3,29.21-15.97,44.89-25.81,18.68-11.73,20.72-11.6,31.11,7.41.73,1.33,2.23,2.24,7.38,7.24-4.07-13.23-5.89-21.73-9.26-29.57-6.83-15.89-14.13-31.62-22.04-47-2.71-5.27-8.29-9.01-11.67-14.04-1.67-2.5-1.32-6.35-1.89-9.59,2.26,1.49,4.66,2.8,6.73,4.52,2.61,2.17,4.94,4.67,10.96,4.68-6.64-9.79-13.27-19.58-20.33-29.98.71,4.12,1.41,8.12,2.1,12.12-.67.26-1.33.51-1.99.77-6.46-11.59-12.56-23.4-19.59-34.63-2.11-3.36-8.11-4.42-9.9-7.81-1.67-3.16-.13-8.02,0-12.14,0,0-.27.06-.27.06,6.58,4.32,14.92,7.32,19.34,13.25,7.03,9.42,20.95,10.84,24.58,25.58,1.38,5.59,18.39,7.34,28.28,10.83.67-2.87,2.89-7.14,1.76-8.39-6.22-6.89-13-13.33-20.09-19.34-4.3-3.64-9.49-6.22-13.3-11.78,6.49.78,12.98,1.56,17.83,2.14-10.36-8.48-22.39-18.16-34.2-28.09-4.54-3.82-8.78-8.06-12.74-12.48-.93-1.04-.2-3.57-.23-5.42,1.51.53,3.24.74,4.49,1.64,9.48,6.81,18.79,13.85,28.35,20.55,1.65,1.16,4.18,1.06,6.31,1.54-.74-2.1-.86-4.89-2.31-6.2-11.34-10.15-23.1-19.84-34.32-30.11-2.65-2.43-3.77-6.54-5.59-9.87,3.98,1.39,8.88,1.75,11.79,4.35,15.14,13.55,29.77,27.67,44.58,41.59,2.09-.45,4.18-.9,6.27-1.36-4-10.99-7.97-21.98-12.14-32.91-.16-.41-2.87.41-3.35-.19-3.68-4.59-17.4-3.71-7.95-15.98,2.28-2.96-1.38-10.7-2.79-16.12-.24-.93-3.12-1.97-4.35-1.59-.98.31-1.44,2.66-1.9,4.18-.63,2.09-1.04,4.26-1.54,6.39-1.98-1.27-4.15-2.31-5.9-3.85-9.22-8.14-18.63-16.11-27.28-24.82-2.38-2.4-2.39-7.14-3.49-10.81,3.04,1.2,6.22,2.13,9.1,3.65,7.26,3.81,14.3,8.05,21.66,11.65,1.01.49,3.44-1.58,4.98-2.77.3-.23-.49-1.88-.77-2.87-1.62.49-3.6,1.83-4.81,1.33-5.21-2.14-10.21-4.82-15.28-7.3,1.79-2.25,5.29-4.69,5.06-6.7-.87-7.52-2.61-15-4.79-22.27-.75-2.52-3.72-4.37-4.24-8.31,2.9,1.35,5.8,2.7,12.34,5.75-4.43-12.68-8.09-22.53-11.21-32.56-.7-2.25.47-5.08.78-7.64,2.16,1.38,5.49,2.27,6.29,4.21,5.97,14.54,11.44,29.29,17.97,46.36-3.7-2.61-5.37-3.78-10.69-7.54,11.29,21.81,20.68,39.94,30.43,58.77.84-5.43,1.59-10.27,2.34-15.11,0,0-.22.04-.22.04Zm14.08,168.15c1.13-3.04,3.49-6.6,3.45-10.14-.03-2.92-2.26-6.77-4.72-8.41-2.22-1.48-6.06-.51-9.19-.63,1.88,2.82,3.98,5.52,5.59,8.49,1.81,3.34,3.17,6.91,4.86,10.68Zm-50.81,137.2c.96-.84,1.92-1.68,2.89-2.53-5.78-7.31-11.56-14.63-17.34-21.94-1.09.89-2.17,1.77-3.26,2.65,5.9,7.27,11.81,14.54,17.71,21.82Zm-87.42-19.38c-12.86-10.64-13.16-10.56-17.01,2.62,5.13-.79,10.03-1.54,17.01-2.62Zm59.07-5.94c-1.1-2.1-2.53-5.3-2.76-5.22-3.51,1.28-6.86,2.99-10.25,4.61.88,1.6,2.15,4.68,2.59,4.57,3.33-.87,6.5-2.37,10.43-3.96Zm-107.78,11.34l.59-2.74c-3.31-.37-6.62-.8-9.94-.95-.2,0-.49,2.3-.74,3.53,3.36.06,6.73.11,10.09.17Zm187.87-19.1c1.06-.03,2.12-.06,3.18-.09-.09-2.95-.13-5.91-.42-8.84-.01-.11-2.44.03-3.74.05.33,2.96.65,5.92.98,8.88Z"/>
      <path class="cls-4" d="m252.62,335.98c4.09,5.24,6.1,7.64,7.92,10.17,5.46,7.56,9.97,16.03-.27,22.41-9.46,5.89-19.95,6.2-26.55-5.09-9.85-16.88-19.41-33.95-28.23-51.38-2.05-4.06-.61-9.89-.77-14.91,2.53,3.26,5.48,6.28,7.52,9.83,9.28,16.11,17.99,32.56,27.64,48.44,2.42,3.97,7.57,6.28,11.46,9.36,1.02-4.68,2.52-9.32,2.9-14.05.3-3.74-.77-7.6-1.64-14.78Z"/>
      <path class="cls-4" d="m232.24,7.39c-8.7,21.07-20.61,41.09-24.82,62.61-4.28,21.84-.86,45.17-1.01,67.84-.05,7.31-.69,14.61-1.06,21.91-2.19-6.2-5.51-12.24-6.39-18.62-4.82-34.96-6.07-69.92,10.74-102.39,5.98-11.56,15.26-21.4,22.54-31.35Z"/>
      <path class="cls-4" d="m57.63,326.14c-10.11-3.05-16.12,1.9-14.03,17.27-4.79-3.41-7.98-5.68-11.95-8.51,0,3.2-.01,5.79-.02,10.45-2.9-2.99-6.23-4.93-6.09-6.57.43-5.07.91-13.34,3.67-14.4,8.28-3.19,19-2.12,15.26-16.34-.22-.82,2.75-2.48,4.24-3.75.88,1.65,1.93,3.23,2.61,4.96,2.15,5.52,4.17,11.11,6.31,16.88Z"/>
      <path class="cls-4" d="m240.92,128.51c-5.36.66-10.13,2.49-11.25,1.18-7.24-8.44-18.33-15.56-13.05-29.65.48-1.28.24-2.94,0-4.37-.56-3.51-1.31-6.99-1.98-10.49,1.53.24,3.81-.06,4.45.82,2.76,3.85,7.45,8.28,7.08,12.07-1.52,15.48-2.02,15.06,11.14,18.4,1.78.45,2.1,6.66,3.6,12.03Z"/>
      <path class="cls-4" d="m245.3,134.07c11.61,8.69,20.72,15.32,29.56,22.3,1.46,1.15,1.72,3.8,2.54,5.76-1.93.28-4.39,1.46-5.71.69-11.75-6.86-23.41-13.89-34.74-21.43-1.26-.84-.26-5.1-.3-7.77,3.82.2,7.64.39,8.65.44Z"/>
      <path class="cls-4" d="m197.73,173.52c-8.12-19.37-19.71-45.35-30.22-69.28-5.54-12.62-10.79-24.66-15.07-34.87,1.1-.48,2.19-.96,3.29-1.45,4.43,10.06,9.63,22.03,15.07,34.6,10.38,24,21.64,50.18,30.1,69.37q-1.59.81-3.17,1.63Z"/>
      <path class="cls-4" d="m78.9,295.98c-4.55-3.36-10.24-6.16-9.91-7.55,1.44-6.08,3.62-12.58,7.55-17.22,2.19-2.58,8.33-1.95,12.73-2.28.4-.03,2.07,4.57,1.45,5.13-4.17,3.73-9.19,6.56-13.03,10.55-1.19,1.24.44,5.18,1.21,11.37Z"/>
      <path class="cls-4" d="m235.32,210.34c-4.03,12.58-10.97,5.81-15.45,1.32-4.5-4.52-6.98-11.07-10.34-16.73,5.48,3.64,10.88,7.39,16.46,10.87,2.97,1.85,6.25,3.22,9.38,4.81l-.06-.27Z"/>
      <path class="cls-4" d="m239.89,174.52c-1.33.24-3.36.99-3.62.59-4.94-7.69-9.73-15.48-14.32-23.37-.3-.51,1.04-2.3,1.97-3.05.37-.3,2.13.35,2.55,1.01,4.42,7,8.73,14.06,12.97,21.18.47.8.27,2,.45,3.65Z"/>
      <path class="cls-4" d="m235.38,210.61c2.8-2.39,5.44-6.46,8.43-6.74,3.6-.34,7.55,2.43,11.2,4.18.61.29.41,2.27.59,3.47-3.24.04-6.51-.2-9.7.21-1.84.23-3.56,1.49-5.33,2.29,0,0,.27-.06.27-.06-1.84-1.2-3.68-2.41-5.52-3.61,0,0,.06.27.06.27Z"/>
      <path class="cls-4" d="m178.06,167.81c4.93,6.55,9.86,13.11,14.79,19.66,1.38-1.08-6.51-15.75-11.83-22l-27.28-19.56c-3.56-3.41-27.15-29.74-30.71-33.16-1.04,1.16-2.08,2.31-3.12,3.47,3.71,3.11,27.42,29.17,31.24,32.13l26.91,19.46Z"/>
      <path class="cls-4" d="m123.09,269.23c-4.36-1.68-10.98-2.48-11.59-4.85-1.18-4.54,1.04-9.97,2.16-16.99,3.61,8.35,6.05,14,9.44,21.84Z"/>
      <path class="cls-4" d="m283.06,342.89c-2.24-7.75-4.47-15.5-6.71-23.26,1.2-.38,2.39-.76,3.58-1.14,2.45,7.69,4.89,15.37,7.34,23.06-1.41.44-2.81.89-4.22,1.33Z"/>
      <path class="cls-4" d="m17.22,374.33c1.16-4.45,2.31-8.9,3.47-13.36,1.51,2.08,4.41,4.31,4.21,6.21-.28,2.66-2.88,5.07-4.48,7.59-1.07-.15-2.13-.3-3.19-.45Z"/>
      <path class="cls-4" d="m179.04,308.81c3.6,6.26,7.21,12.52,10.82,18.78-1.3.73-2.6,1.45-3.89,2.18-3.49-6.31-6.99-12.62-10.48-18.93,1.19-.68,2.37-1.35,3.55-2.03Z"/>
      <path class="cls-4" d="m142.84,246.35c4.23-3.9,8.46-7.8,12.69-11.7,1.05,1.04,2.1,2.09,3.16,3.13-4.07,4.14-8.14,8.29-12.21,12.43-1.21-1.29-2.42-2.57-3.63-3.86Z"/>
      <path class="cls-4" d="m376.44,293.41c6.04.29,12.09.58,18.13.87-.55,2.14-1.09,4.27-1.64,6.4-5.43-2.46-10.85-4.92-16.29-7.38,0,0-.2.1-.2.1Z"/>
      <path class="cls-4" d="m228.01,265.56c-4.22-1.18-8.44-2.33-12.59-3.71-.08-.02,1-3.99,1.08-3.97,4.29.92,8.52,2.06,12.77,3.19-.42,1.5-.84,2.99-1.26,4.49Z"/>
      <path class="cls-4" d="m235.31,96c.43,3.96.97,7.92,1.07,11.88,0,.35-2.92.77-4.48,1.15-.44-4.09-.89-8.18-1.33-12.27,1.58-.26,3.16-.51,4.74-.77Z"/>
      <path class="cls-4" d="m136.98,249.28c-1.22,3.96-2.45,7.91-3.67,11.87-1.01-.66-2.96-1.48-2.88-1.97.61-3.74,1.61-7.42,2.49-11.11,1.35.4,2.7.81,4.06,1.21Z"/>
      <path class="cls-4" d="m223.34,131.82c1.16,3.68,2.32,7.37,3.48,11.05-1.06.36-2.12.71-3.18,1.07-1.27-3.62-2.53-7.25-3.8-10.88,1.17-.42,2.33-.83,3.5-1.25Z"/>
      <path class="cls-4" d="m299.83,125.39c-2.41-4.93-4.81-9.86-7.22-14.79,1.94-.58,3.88-1.17,5.82-1.75.39,5.53.78,11.06,1.17,16.58,0,0,.22-.05.22-.05Z"/>
      <path class="cls-4" d="m197.22,247.79c-1.8-2.16-3.6-4.32-5.4-6.48.8-.66,1.59-1.33,2.39-1.99,1.8,2.16,3.59,4.32,5.39,6.48-.79.66-1.58,1.32-2.38,1.98Z"/>
    </g>
    <polygon class="cls-1" points="281.1 386.9 143.74 240.27 245.89 151.23 379.38 293.44 281.1 386.9"/>
    <path class="cls-3" d="m268.46,343.34l-82.83-88.43c-6.29-6.72-5.76-17.32,1.18-23.36l50.96-43.16c6.59-5.74,16.55-5.25,22.53,1.13l80.8,86.08c6.11,6.52,5.83,16.74-.65,22.9l-48.92,45.51c-6.54,6.22-16.89,5.92-23.06-.67Z"/>
    <path class="cls-5" d="m209.7,243.55s32.93-53.23,52.39-25.54-38.18,35.04-16.94,63.45,40.99-29.32,61.32-13.42-23.63,48.34-23.63,48.34"/>
  </g>
</svg>